# xmcd
#
# Track frame offsets: 
#        150
#        19776
#        35522
#        54146
#        73031
#        87335
#        103034
#        117527
#        131424
#        153953
#        168432
#        183957
#        201966
#        223898
#        237382
#        271666
#
# Disc length: 4061 seconds
#
# Revision: 0
# Processed by: cddbd v1.5.2PL0 Copyright (c) Steve Scherf et al.
# Submitted via: ExactAudioCopy v0.99pb5
#
DISCID=de0fdb10
DTITLE=Danny Baty - All The Music
DYEAR=2001
DGENRE=Country
TTITLE0=Fire
TTITLE1=All Alone And Lonely
TTITLE2=400 Horses
TTITLE3=Before You Say Goodbye
TTITLE4=Seasons Change
TTITLE5=The Rainy Day Blues
TTITLE6=She Had Her Reasons For Leaving
TTITLE7=This January
TTITLE8=Old Memories Die Hard
TTITLE9=Whats New With You
TTITLE10=I Still Believe In Santa Claus
TTITLE11=When I Say I'm Sorry Again
TTITLE12=Yonder Valley
TTITLE13=Color Me Blue
TTITLE14=Oh No, Not Me
TTITLE15=DATA
EXTD=
EXTT0=
EXTT1=
EXTT2=
EXTT3=
EXTT4=
EXTT5=
EXTT6=
EXTT7=
EXTT8=
EXTT9=
EXTT10=
EXTT11=
EXTT12=
EXTT13=
EXTT14=
EXTT15=
PLAYORDER=
